<svg xmlns="http://www.w3.org/2000/svg" viewBox="0 0 215.9 208"><defs><linearGradient id="linear-gradient" x1="101.02" y1="-3.22" x2="101.02" y2="199.88" gradientUnits="userSpaceOnUse"><stop offset="0" stop-color="#fff"/><stop offset="1" stop-color="#00549e"/></linearGradient><style>.cls-2{fill:#231f20}.cls-5{fill:#754c29}.cls-7{fill:#f7941d}.cls-8{fill:#f47729}.cls-9{fill:#fff}.cls-10{fill:#3c2415}.cls-12{fill:#603d19}.cls-15{fill:#e6e7e8}.cls-17{fill:#ef4136}.cls-18{fill:#fbb040}</style></defs><g id="Layer_2" data-name="Layer 2"><g id="Layer_1-2" data-name="Layer 1"><circle cx="101.02" cy="106.98" r="98.68" style="fill:url(#linear-gradient)"/><path class="cls-2" d="M101 208a101 101 0 1 1 101-101 101.14 101.14 0 0 1-101 101Zm0-197.36A96.34 96.34 0 1 0 197.36 107 96.45 96.45 0 0 0 101 10.64Z"/><path d="M148.5 170.53c-4.32 6.89-23.78 12.1-47.15 12.1s-42.83-5.21-47.15-12.1c-5.6 2.16-8.86 4.73-8.86 7.49 0 7.67 25.08 13.89 56 13.89s56-6.22 56-13.89c.03-2.76-3.24-5.33-8.84-7.49Z" style="fill:#173f74"/><path d="M101.35 182.63c23.37 0 42.83-5.21 47.15-12.1-10-3.85-27.35-6.4-47.15-6.4s-37.19 2.55-47.15 6.4c4.32 6.89 23.8 12.1 47.15 12.1Z" style="fill:#00214c"/><path class="cls-5" d="M141 135.22a78.64 78.64 0 0 1 10.22-8.08c16.43-11.08 11.92-28.5 7.94-42.61-2.84-10.06 10.77-12.77 16 16.38 5.15 28.68-26.59 51.19-35.11 51.19"/><path class="cls-2" d="M140.08 153.56a1.46 1.46 0 0 1 0-2.92c4 0 14.81-6.17 23.21-16.2 6.17-7.39 13-19.15 10.46-33.28-2.61-14.54-7.38-20.94-10.67-22a1.85 1.85 0 0 0-2 .3c-.69.65-1.17 2.23-.48 4.67 3.84 13.64 9.11 32.31-8.54 44.22a77.36 77.36 0 0 0-10 7.91 1.46 1.46 0 0 1-2-2.08 78.6 78.6 0 0 1 10.43-8.25c15.9-10.72 11-28.23 7.36-41-.89-3.13-.41-6 1.26-7.57a4.78 4.78 0 0 1 4.94-1c5.51 1.78 10.24 10.86 12.65 24.27 2.73 15.23-4.53 27.8-11.1 35.66-8.7 10.34-20.2 17.27-25.52 17.27Z"/><path d="M164.93 79.16c3.45 8.22 11.77 31.09.15 45.74s-19.42 13.9-19.42 13.9l1.12 11.1c12.26-6.31 32.62-25.59 28.41-49-2.77-15.4-6.48-20.51-10.26-21.74Z" style="fill:#603913"/><path class="cls-2" d="M140.08 153.56a1.46 1.46 0 0 1 0-2.92c4 0 14.81-6.17 23.21-16.2 6.17-7.39 13-19.15 10.46-33.28-2.61-14.54-7.38-20.94-10.67-22a1.85 1.85 0 0 0-2 .3c-.69.65-1.17 2.23-.48 4.67 3.84 13.64 9.11 32.31-8.54 44.22a77.36 77.36 0 0 0-10 7.91 1.46 1.46 0 0 1-2-2.08 78.6 78.6 0 0 1 10.43-8.25c15.9-10.72 11-28.23 7.36-41-.89-3.13-.41-6 1.26-7.57a4.78 4.78 0 0 1 4.94-1c5.51 1.78 10.24 10.86 12.65 24.27 2.73 15.23-4.53 27.8-11.1 35.66-8.7 10.34-20.2 17.27-25.52 17.27Z"/><path class="cls-7" d="M148.84 136.26c0 29.71-21.55 46.37-48.13 46.37S52.57 166 52.57 136.26s21.55-76.08 48.14-76.08 48.13 46.36 48.13 76.08Z"/><path class="cls-2" d="M100.71 184c-29.62 0-49.52-19.19-49.52-47.75 0-30.59 22.18-77.46 49.52-77.46s49.52 46.87 49.52 77.46c0 28.57-19.9 47.75-49.52 47.75Zm0-122.44c-6.7 0-19.86 3.4-32.84 26.19C59.29 102.84 54 121.42 54 136.26c0 26.9 18.78 45 46.75 45s46.75-18.08 46.75-45c0-14.84-5.34-33.42-13.92-48.5C120.57 65 107.4 61.57 100.71 61.57Z"/><path class="cls-8" d="M100.71 60.18h-1c20.67 1.1 45.42 47.77 45.42 74.89.04 27.5-20.62 42.93-46.13 42.93-9.54 0-18.21-.14-25.4-2.28a53.11 53.11 0 0 0 27.1 6.95c26.58 0 48.13-16.66 48.13-46.37s-21.54-76.12-48.12-76.12Z"/><path class="cls-8" d="m137.93 100.74-7.57 6.73s8.56-1.83 8.9-3.37-1.33-3.36-1.33-3.36ZM139.87 106.39l-8.8 6.73s9.94-1.83 10.34-3.37-1.54-3.36-1.54-3.36ZM141.91 112.23l-10.3 7.77s11.64-2.11 12.11-3.89-1.81-3.88-1.81-3.88ZM141.48 157.87l-11-6.69s6.26 10 8.09 9.8 2.91-3.11 2.91-3.11ZM146.31 152.21l-12.27-4s8.4 8.33 10.13 7.69 2.14-3.69 2.14-3.69ZM61.47 100.74l9 6.73s-10.13-1.83-10.54-3.37 1.54-3.36 1.54-3.36ZM59.18 106.39l10.42 6.73s-11.78-1.83-12.25-3.37 1.83-3.36 1.83-3.36ZM56.76 112.23 69 120s-13.78-2.11-14.34-3.89 2.1-3.88 2.1-3.88Z"/><path class="cls-9" d="M122.25 128.88c0 14.41-8.06 27-22.8 27s-22.8-12.56-22.8-27S84.71 94 99.45 94s22.8 20.48 22.8 34.88Z"/><path class="cls-2" d="M99.45 157.2c-14.21 0-24.14-11.64-24.14-28.32a50.48 50.48 0 0 1 6-23.52c4.57-8.23 11-12.76 18.1-12.76s13.53 4.53 18.11 12.76a50.6 50.6 0 0 1 6 23.52c.08 16.68-9.85 28.32-24.07 28.32Zm0-61.9C85.64 95.3 78 115.16 78 128.88c0 17.7 10.77 25.62 21.45 25.62s21.46-7.92 21.46-25.62c0-13.72-7.64-33.58-21.46-33.58Z"/><path class="cls-5" d="M143.09 42.72c-.18 2.41-4.7-.74-6.23 1l-31.49-19.25a39.89 39.89 0 0 1 3.15-6.35c6.64-10.87 20.93-21.91 28.07-13.95 4.88 5.43 7.57 24.5 6.5 38.55Z"/><path class="cls-2" d="m137.14 45.6-1-.64-32.58-19.89.45-1.14a41 41 0 0 1 3.27-6.57C112.42 8.94 122.3 0 130.47 0a9.33 9.33 0 0 1 7.21 3.2c5.37 6 7.93 25.68 6.87 39.63a2.41 2.41 0 0 1-2.62 2.3 10.08 10.08 0 0 1-1.92-.27 10 10 0 0 0-1.64-.24.93.93 0 0 0-.42.06Zm1.23-3.9a11.42 11.42 0 0 1 2.22.3 10.78 10.78 0 0 0 1.08.19c1-14.46-1.95-32.35-6.16-37a6.44 6.44 0 0 0-5-2.23c-6.85 0-15.91 8.11-20.7 16a38.64 38.64 0 0 0-2.58 5L136.83 42a3.92 3.92 0 0 1 1.54-.3Z"/><path class="cls-2" d="M133.11 33.16c-.07.8-13.28-7-13.28-7a13.37 13.37 0 0 1 1-2.11c2.2-3.61 6.85-9.23 9.36-6 .72.95 3.27 10.44 2.92 15.11Z"/><path class="cls-2" d="M133 34.68c-.4 0-1.62 0-13.91-7.23l-1.09-.63.46-1.16a13.77 13.77 0 0 1 1.16-2.34c1.1-1.79 5-7.65 8.77-7.65a3.69 3.69 0 0 1 3 1.56c1.06 1.4 3.52 11.35 3.16 16a1.54 1.54 0 0 1-1.55 1.45Zm-11.3-9.08c3.79 2.2 7.76 4.42 10 5.5a49.9 49.9 0 0 0-2.7-12.16.71.71 0 0 0-.63-.35c-1.38 0-4.14 2.75-6.28 6.25-.09.25-.26.5-.39.76Z"/><path class="cls-10" d="m137.14 4.93-7.57 6.73s8.56-1.83 8.9-3.37-1.33-3.36-1.33-3.36Z"/><path class="cls-7" d="M57.55 43.69c.19 2.41 4.7-.74 6.24 1l31.49-19.25a41.26 41.26 0 0 0-3.16-6.35C85.48 8.22 71.2-2.81 64.05 5.14c-4.88 5.44-7.57 24.51-6.5 38.55Z"/><path class="cls-8" d="m62.52 8.29 9 6.73S61.36 13.2 61 11.66s1.52-3.37 1.52-3.37ZM59.36 14.43l6.83 4.84s-7.72-1.32-8-2.42 1.17-2.42 1.17-2.42Z"/><path class="cls-2" d="m63.52 46.56-.83-.9a.83.83 0 0 0-.41-.06 9 9 0 0 0-1.64.24 10.15 10.15 0 0 1-1.93.26 2.4 2.4 0 0 1-2.61-2.3C55 29.86 57.6 10.15 63 4.17A9.31 9.31 0 0 1 70.17 1c8.18 0 18.06 9 23.2 17.36a42.43 42.43 0 0 1 3.27 6.58l.45 1.14Zm6.65-42.67a6.42 6.42 0 0 0-5 2.23c-4.22 4.7-7.18 22.6-6.16 37 .31 0 .7-.11 1.08-.18a7 7 0 0 1 3.75 0l29.62-18.1a40.64 40.64 0 0 0-2.58-5C86.08 12 77 3.89 70.17 3.89Z"/><path class="cls-2" d="M67.54 34.13c.06.81 13.28-7 13.28-7a13.47 13.47 0 0 0-1-2.12c-2.21-3.61-6.86-9.23-9.36-6-.72.99-3.28 10.45-2.92 15.12Z"/><path class="cls-2" d="M67.64 35.65a1.54 1.54 0 0 1-1.56-1.41c-.35-4.68 2.1-14.64 3.17-16a3.67 3.67 0 0 1 3-1.56c3.81 0 7.68 5.85 8.78 7.64a15.91 15.91 0 0 1 1.16 2.34l.45 1.16-1.07.63c-12.27 7.18-13.52 7.2-13.93 7.2Zm4.6-16.09c-.12 0-.36 0-.67.42A50.12 50.12 0 0 0 69 32.08c2.18-1.09 6.16-3.3 10-5.51a6.93 6.93 0 0 0-.43-.75c-2.19-3.51-4.95-6.26-6.33-6.26Z"/><path d="M100.71 41.36c-.61 26.19-9.52 48.55-22.9 57.33 13.38-8.78 22.9-31.13 22.9-57.33Z" style="fill:none"/><path class="cls-12" d="M113.32 101.43a33.09 33.09 0 0 1 3.2 4.85c9.48-2.52 17.13-7.23 21.42-13.11-.32-.68-.65-1.33-1-2a57.68 57.68 0 0 1-23.62 10.25ZM82.62 105.85a32.22 32.22 0 0 1 3.23-4.75 57.62 57.62 0 0 1-21.6-9.51c-.38.72-.72 1.46-1.08 2.19 4.12 5.29 11.01 9.57 19.45 12.07Z"/><path d="M100.32 102.67a66.22 66.22 0 0 1-14.47-1.57 32.22 32.22 0 0 0-3.23 4.75 61.41 61.41 0 0 0 17.69 2.52 62.47 62.47 0 0 0 16.2-2.08 33.09 33.09 0 0 0-3.2-4.85 68.08 68.08 0 0 1-12.99 1.23Z" style="fill:#573819"/><path class="cls-2" d="M99.45 157.2c-14.21 0-24.14-11.64-24.14-28.32a50.48 50.48 0 0 1 6-23.52c4.57-8.23 11-12.76 18.1-12.76s13.53 4.53 18.11 12.76a50.6 50.6 0 0 1 6 23.52c.08 16.68-9.85 28.32-24.07 28.32Zm0-61.9C85.64 95.3 78 115.16 78 128.88c0 17.7 10.77 25.62 21.45 25.62s21.46-7.92 21.46-25.62c0-13.72-7.64-33.58-21.46-33.58Z"/><path d="M140.71 88c-1.19 1.1-2.44 2.14-3.76 3.14.34.67.67 1.32 1 2a19.91 19.91 0 0 0 2.76-5.14Z" style="fill:#533414"/><path class="cls-2" d="M100.71 184c-29.62 0-49.52-19.19-49.52-47.75 0-30.59 22.18-77.46 49.52-77.46s49.52 46.87 49.52 77.46c0 28.57-19.9 47.75-49.52 47.75Zm0-122.44c-6.7 0-19.86 3.4-32.84 26.19C59.29 102.84 54 121.42 54 136.26c0 26.9 18.78 45 46.75 45s46.75-18.08 46.75-45c0-14.84-5.34-33.42-13.92-48.5C120.57 65 107.4 61.57 100.71 61.57Z"/><path class="cls-7" d="M136.5 55.83A19.6 19.6 0 0 1 144.87 40c-9.45-11-25.69-18.25-44.16-18.25h-1.86a72.28 72.28 0 0 1 1.86 19.54c0 26.2-9.52 48.55-22.9 57.33a66.35 66.35 0 0 0 22.9 4c23.43 0 43.3-11.69 50.21-27.86-8.45-2.95-14.42-10.31-14.42-18.93Z"/><path class="cls-2" d="M100.71 104.13a67.55 67.55 0 0 1-23.41-4.07 1.46 1.46 0 0 1-.94-1.21 1.44 1.44 0 0 1 .64-1.39c13.3-8.72 22.24-31.27 22.24-56.1a71 71 0 0 0-1.81-19.17 1.46 1.46 0 0 1 1.38-1.83H100.7c18.25 0 35.17 7 45.26 18.75a1.48 1.48 0 0 1 .35 1.12 1.45 1.45 0 0 1-.59 1 18.15 18.15 0 0 0-7.72 14.6c0 7.79 5.28 14.7 13.45 17.6a1.45 1.45 0 0 1 .84.79 1.42 1.42 0 0 1 0 1.16c-7.38 17.2-28.1 28.75-51.58 28.75Zm-19.77-5.91a65.06 65.06 0 0 0 19.77 3c21.69 0 40.84-10.23 48.24-25.6C140.45 72 135 64.39 135 55.83a20.84 20.84 0 0 1 7.7-16c-9.65-10.42-25.23-16.6-42-16.6a77.46 77.46 0 0 1 1.47 18.15c0 24.71-8.25 46.62-21.23 56.84Z"/><path class="cls-5" d="M100.71 41.36a102.11 102.11 0 0 0-1.86-19.54c-28.31.75-51 18.55-51 40.41 0 16.05 12.22 29.92 29.93 36.46 13.41-8.78 22.32-31.14 22.93-57.33Z"/><path class="cls-2" d="M77.81 100.15a1.48 1.48 0 0 1-.51-.09c-18.76-6.92-30.88-21.77-30.88-37.83 0-22.7 23-41.09 52.4-41.87a1.48 1.48 0 0 1 1.47 1.18 104.62 104.62 0 0 1 1.88 19.82C101.55 68 92.3 90.92 78.61 99.91a1.53 1.53 0 0 1-.8.24Zm19.84-76.83c-27.19 1.21-48.31 18.12-48.31 38.91 0 14.63 11.07 28.23 28.27 34.82 12.59-8.76 21-30.5 21.64-55.72a101.29 101.29 0 0 0-1.6-18.01Z"/><path class="cls-10" d="m52.16 47.51 9 6.73S51 52.41 50.59 50.87s1.57-3.36 1.57-3.36ZM49.87 53.16l10.42 6.73S48.51 58.06 48 56.53s1.87-3.37 1.87-3.37Z"/><path class="cls-8" d="M133.18 73.41c0-5.71-4.27-10.34-9.53-10.34a9.48 9.48 0 0 0-8.56 5.81c8.31 2.28 13.9 6.61 13.9 12.36a6.68 6.68 0 0 1-.07.77 10.55 10.55 0 0 0 4.26-8.6Z"/><path class="cls-5" d="M98.85 21.82a102.11 102.11 0 0 1 1.86 19.54 72.28 72.28 0 0 0-1.86-19.54Z"/><path class="cls-2" d="M100.71 42.82a1.46 1.46 0 0 1-1.44-1.46 101.18 101.18 0 0 0-1.85-19.26 1.46 1.46 0 0 1 2.85-.65 73.91 73.91 0 0 1 1.9 20 1.46 1.46 0 0 1-1.46 1.37Z"/><path class="cls-5" d="M144.87 40a19.6 19.6 0 0 0-8.37 15.79c0 8.62 6 16 14.42 19a31.92 31.92 0 0 0 2.62-12.58A33.92 33.92 0 0 0 144.87 40Z"/><path class="cls-2" d="m151.72 76.64-1.29-.46C141.08 72.87 135 64.88 135 55.83a21 21 0 0 1 9-17l1.09-.8.88 1a35.33 35.33 0 0 1 9 23.15 33.23 33.23 0 0 1-2.74 13.15Zm-7.07-34.58A18 18 0 0 0 138 55.83c0 7.37 4.72 14 12.14 17.1a30.29 30.29 0 0 0 2-10.7 32.17 32.17 0 0 0-7.49-20.17Z"/><ellipse class="cls-2" cx="85.79" cy="49.33" rx="12.3" ry="10.6" transform="rotate(-7.3 85.786 49.308)"/><ellipse class="cls-9" cx="86.33" cy="50.89" rx="8.94" ry="7.7" transform="rotate(-7.3 86.318 50.838)"/><ellipse class="cls-2" cx="86.33" cy="51.28" rx="3.35" ry="2.96" transform="rotate(-7.28 86.308 51.261)"/><path class="cls-2" d="M76.26 41.54a.92.92 0 0 1-.36-.07l-3.39-1.33a1 1 0 1 1 .71-1.81l3.39 1.33a1 1 0 0 1 .55 1.26 1 1 0 0 1-.9.62ZM79 39.24a1 1 0 0 1-.56-.17l-4.07-2.86a1 1 0 0 1-.24-1.36 1 1 0 0 1 1.35-.23l4.08 2.85a1 1 0 0 1 .23 1.36 1 1 0 0 1-.79.41Z"/><ellipse class="cls-2" cx="117.86" cy="49.33" rx="10.6" ry="12.3" transform="rotate(-82.7 117.865 49.328)"/><ellipse class="cls-9" cx="117.33" cy="50.89" rx="7.7" ry="8.94" transform="rotate(-82.7 117.331 50.885)"/><ellipse class="cls-2" cx="117.33" cy="51.28" rx="2.96" ry="3.35" transform="rotate(-82.72 117.329 51.274)"/><path class="cls-2" d="M127.4 41.54a1 1 0 0 1-.36-1.88l3.4-1.33a1 1 0 1 1 .71 1.81l-3.4 1.33a.84.84 0 0 1-.35.07ZM124.7 39.24a1 1 0 0 1-.56-1.77l4.07-2.85a1 1 0 1 1 1.12 1.59l-4.07 2.86a1 1 0 0 1-.56.17Z"/><path class="cls-9" d="M129 81.24C129 89.93 116.27 97 100.58 97s-28.41-7-28.41-15.73S84.89 67.1 100.58 67.1 129 72.55 129 81.24Z"/><path class="cls-15" d="M100.74 94c-10.3.06-19.92-2.6-28.57-12.71.69 10.6 13.65 15.27 28.19 15.27 15.69 0 27-6 28.41-15.27-8.1 8.79-13.47 12.58-28.03 12.71Z"/><path class="cls-2" d="M101.08 92.33c-8.66 0-16.56-4.53-20.18-11.58a1 1 0 0 1 1.73-.89c3.29 6.41 10.51 10.52 18.45 10.52h.26c7.72-.09 14.82-4.15 18.08-10.34a1 1 0 1 1 1.72.91c-3.64 6.92-11.22 11.28-19.78 11.38Z"/><path class="cls-2" d="M100.58 98.43c-16.75 0-29.87-7.55-29.87-17.19 0-9.2 12.28-15.63 29.87-15.63s29.87 6.39 29.87 15.63c0 9.64-13.12 17.19-29.87 17.19Zm0-29.9c-15.62 0-26.95 5.35-26.95 12.71 0 7.74 12.34 14.27 27 14.27s27-6.53 27-14.27c-.09-7.36-11.43-12.71-27.05-12.71Z"/><path class="cls-2" d="M99.88 73h2.28v18.84h-2.28z"/><path class="cls-2" d="M109.35 68c0 4.6-8.33 7.44-8.33 7.44S92.7 72.61 92.7 68s3.73-4.07 8.32-4.07 8.33-.51 8.33 4.07Z"/><ellipse cx="101.02" cy="66.95" rx="5.41" ry=".93" style="fill:#a7a9ac"/><path class="cls-8" d="M129.18 164.13c0 4.08-1.85 21.49-12.29 20.21-5.64-.7-13.66-9.51-10.28-11.8 3.59-2.43-3.59-14.95 1.25-11.77s21.32-.72 21.32 3.36Z"/><path class="cls-9" d="M123.58 179.53c0 4.09-3.86 5.54-9.91 5.54s-11-3.31-11-7.4 2.73-7.49 7.88-4.31 13.03 2.09 13.03 6.17Z"/><path class="cls-15" d="M113 181.18a27.82 27.82 0 0 1-9.9-6.27 5.62 5.62 0 0 0-.41 2.07c0 4.47 5.31 8.09 11.85 8.09a15.16 15.16 0 0 0 8-2.18 28.1 28.1 0 0 1-9.54-1.71Z"/><path class="cls-2" d="M114.56 186.29c-7.21 0-13.07-4.18-13.07-9.31 0-3.26 2.32-6.22 6.13-7.91a48.49 48.49 0 0 1-1-8.26 1.22 1.22 0 1 1 2.43-.08 45.8 45.8 0 0 0 1.15 8.81l.25 1.05-1 .37c-3.41 1.23-5.52 3.54-5.52 6 0 3.79 4.77 6.87 10.63 6.87 4.68 0 8.87-2 10.21-5a77.33 77.33 0 0 0 5.09-18.52 1.22 1.22 0 0 1 2.41.35 79.32 79.32 0 0 1-5.27 19.18c-1.76 3.87-6.75 6.45-12.44 6.45Z"/><path class="cls-5" d="M71.42 164.13c0 4.08 1.85 21.49 12.29 20.21 5.64-.7 13.66-9.51 10.28-11.8-3.59-2.43 2.2-14.95-2.63-11.77s-19.94-.72-19.94 3.36Z"/><path class="cls-9" d="M77 179.53c0 4.09 3.86 5.54 9.91 5.54s11-3.31 11-7.4-2.73-7.49-7.88-4.31S77 175.45 77 179.53Z"/><path class="cls-15" d="M88.64 181.55a27.91 27.91 0 0 0 9.57-6.76 5.77 5.77 0 0 1 .5 2c.23 4.47-4.88 8.36-11.41 8.69a15 15 0 0 1-8.15-1.77 28.11 28.11 0 0 0 9.49-2.16Z"/><path class="cls-2" d="M86 186.29c-5.69 0-10.68-2.58-12.42-6.41a79.72 79.72 0 0 1-5.29-19.17 1.22 1.22 0 0 1 2.41-.35 77.27 77.27 0 0 0 5.11 18.56c1.32 2.89 5.52 4.93 10.19 4.93 5.86 0 10.63-3.08 10.63-6.87 0-2.48-2.11-4.79-5.51-6l-1-.37.24-1.05a45 45 0 0 0 1.15-8.81 1.22 1.22 0 1 1 2.43.08 48.49 48.49 0 0 1-1 8.26c3.81 1.69 6.13 4.65 6.13 7.91.04 5.11-5.82 9.29-13.07 9.29Z"/><circle class="cls-15" cx="118.06" cy="76.01" r="1.41"/><circle class="cls-15" cx="115.28" cy="72.53" r="1.41"/><circle class="cls-15" cx="114.36" cy="77.52" r="1.41"/><circle class="cls-15" cx="84.32" cy="76.13" r="1.41"/><circle class="cls-15" cx="88.05" cy="77.52" r="1.41"/><circle class="cls-15" cx="87.45" cy="73" r="1.41"/><path class="cls-2" d="M139.28 77.22 119.05 77a1 1 0 1 1 0-2l20.22.24a1 1 0 0 1 0 2ZM116.28 73.44a1 1 0 0 1-.36-1.88l19-7.48a1 1 0 1 1 .72 1.81l-19 7.48a.84.84 0 0 1-.36.07ZM63.41 77.22a1 1 0 0 1 0-2L83.62 75a1 1 0 0 1 0 2l-20.22.24ZM86.41 73.44a.92.92 0 0 1-.36-.07L67 65.89a1 1 0 1 1 .72-1.81l19 7.48a1 1 0 0 1-.36 1.88Z"/><circle class="cls-17" cx="182.41" cy="172.22" r="29.88"/><path class="cls-17" d="M182.41 142.34a29.88 29.88 0 1 1-29.87 29.88 29.88 29.88 0 0 1 29.87-29.88m0-1.08a31 31 0 1 0 31 31 31 31 0 0 0-31-31Z"/><path class="cls-18" d="M155.93 162.55a.69.69 0 0 1-.39-.14l.4-.59-.51-.5.1-.1c3.46-3.93 16-16.83 32.64-18a.73.73 0 0 1 .77.66.72.72 0 0 1-.67.77c-16.47 1.16-29.27 14.79-31.67 17.51a.92.92 0 0 1-.67.39Z"/><path class="cls-18" d="M153.93 168.6a.72.72 0 0 1-.4-.12.71.71 0 0 1-.2-1c.15-.22 15.06-22.45 39.63-22.45a.72.72 0 1 1 0 1.44c-23.79 0-38.29 21.58-38.44 21.8a.69.69 0 0 1-.59.33Z"/><path class="cls-18" d="M153.93 172.46a.71.71 0 0 1-.62-1.08c.16-.27 16.2-26.86 43.49-24.27a.72.72 0 0 1-.14 1.43c-26.4-2.52-42 23.31-42.12 23.57a.72.72 0 0 1-.61.35Z"/><path class="cls-18" d="M208.58 185.1a.71.71 0 0 1-.72-.71c0-27.28-12.93-33.66-13.06-33.72a.72.72 0 1 1 .6-1.3c.57.26 13.89 6.74 13.89 35a.71.71 0 0 1-.71.73Z"/><path class="cls-18" d="M206.67 187.76a.72.72 0 0 1-.72-.7c-.53-32-14.93-36.81-15.07-36.85a.73.73 0 0 1-.48-.9.71.71 0 0 1 .89-.47c.64.19 15.54 5 16.1 38.19a.72.72 0 0 1-.71.73Z"/><path class="cls-18" d="M204.14 191.16a.72.72 0 0 1-.67-.76c1.88-29.94-12.46-37.83-14.38-38.74h-.06c-.54-.21-.75-.53-.63-.95a.72.72 0 0 1 .81-.51l.21.08.12.05a.42.42 0 0 1 .16.09c2.89 1.39 17.08 10 15.19 40.09a.72.72 0 0 1-.75.65Z"/><path class="cls-18" d="M201.19 195.18h-.13a.71.71 0 0 1-.58-.83c6.13-33.68-15.79-42.61-16-42.7a.71.71 0 0 1-.41-.92.7.7 0 0 1 .92-.41c.24.09 23.25 9.46 16.91 44.28a.72.72 0 0 1-.71.58Z"/><path class="cls-18" d="M170.72 198.46a.73.73 0 0 1-.72-.71c-.31-20.47 13-45.41 13.13-45.66a.72.72 0 0 1 1.26.68c-.13.25-13.27 24.86-12.95 45a.73.73 0 0 1-.71.73Z"/><path class="cls-18" d="M168.2 197.83a.73.73 0 0 1-.72-.71c-.31-20.47 13.31-45.63 13.45-45.88a.72.72 0 0 1 1.26.69c-.14.25-13.59 25.08-13.28 45.17a.72.72 0 0 1-.7.73ZM173.14 199.48a.71.71 0 0 1-.68-.74c.91-23.43 12.49-44.84 12.61-45.05a.71.71 0 0 1 1-.29.72.72 0 0 1 .28 1c-.11.21-11.53 21.34-12.44 44.42a.71.71 0 0 1-.77.66Z"/><path class="cls-18" d="M178 200.5a.72.72 0 0 1-.71-.68c-1.12-19.89 11.64-43.68 11.77-43.92a.71.71 0 0 1 1-.29.73.73 0 0 1 .29 1c-.13.24-12.69 23.68-11.6 43.16a.72.72 0 0 1-.68.76Z"/><path class="cls-18" d="M175.62 200.5a.71.71 0 0 1-.71-.68c-1.12-19.89 11.89-44.77 12-45a.72.72 0 1 1 1.27.67c-.13.25-13 24.78-11.86 44.27a.72.72 0 0 1-.68.76Z"/><path class="cls-18" d="M180.41 201.66a.72.72 0 0 1-.71-.66c-1.76-19.7 10.82-43.29 11-43.52a.72.72 0 0 1 1.26.68c-.13.23-12.51 23.44-10.78 42.72a.72.72 0 0 1-.65.77ZM195.78 164.43h-.18c-.65-.17-2.17-.46-3.17-.65l-.81-.16a.71.71 0 1 1 .28-1.4l.8.15c1.08.21 2.56.49 3.25.67a.72.72 0 0 1-.17 1.41Z"/><path class="cls-18" d="M198.48 172.46a.62.62 0 0 1-.23 0l-1.1-.37c-2.26-.76-6.45-2.18-8.08-2.59a.71.71 0 0 1-.51-.87.72.72 0 0 1 .87-.52c1.67.43 5.74 1.8 8.17 2.62l1.11.37a.73.73 0 0 1 .45.91.72.72 0 0 1-.68.45ZM199.62 175.24a.85.85 0 0 1-.23 0l-1.42-.49a77 77 0 0 0-9.75-2.91.71.71 0 1 1 .22-1.41 75.81 75.81 0 0 1 10 3l1.41.48a.72.72 0 0 1-.23 1.4ZM200.15 177.74a.69.69 0 0 1-.25 0 55 55 0 0 0-11.76-3.21.72.72 0 0 1-.63-.79.73.73 0 0 1 .8-.63 56.28 56.28 0 0 1 12.08 3.28.73.73 0 0 1 .43.92.72.72 0 0 1-.67.43ZM200.15 180.19a.78.78 0 0 1-.26 0 69.43 69.43 0 0 0-13.36-3.67.71.71 0 0 1-.6-.81.72.72 0 0 1 .81-.61 71.62 71.62 0 0 1 13.66 3.75.71.71 0 0 1 .42.92.72.72 0 0 1-.67.42ZM200.15 182.67a.65.65 0 0 1-.36-.1c-2.89-1.69-7.45-2.53-11.47-3.27-1-.18-1.93-.36-2.8-.54a.7.7 0 0 1-.56-.84.72.72 0 0 1 .85-.56c.86.18 1.8.35 2.77.53 4.13.77 8.82 1.63 11.93 3.45a.72.72 0 0 1-.36 1.33ZM184.73 182.43a.72.72 0 0 1-.32-1.36l2.84-1.39a.71.71 0 1 1 .63 1.28l-2.84 1.4a.7.7 0 0 1-.31.07ZM183.14 185.37a.72.72 0 1 1 0-1.43 60.42 60.42 0 0 0 6.63-3.54.71.71 0 1 1 .72 1.23c-2.9 1.71-6.49 3.74-7.35 3.74Z"/><path class="cls-18" d="M183.26 187.75h-.2a.71.71 0 1 1 .33-1.39c.81 0 5.87-2.72 10.06-5.23a.72.72 0 1 1 .73 1.23c-4.18 2.48-9.36 5.39-10.92 5.39Z"/><path class="cls-18" d="M183.21 190.11h-.12a.72.72 0 0 1-.67-.77.7.7 0 0 1 .76-.66c1.62.12 8.44-4.25 12.33-7a.72.72 0 0 1 1 .16.71.71 0 0 1-.17 1c-1.72 1.21-10.34 7.27-13.13 7.27ZM178.37 154.75a.85.85 0 0 1-.23 0c-.66-.22-1.28-1.19-1.52-1.59a.72.72 0 0 1 .26-1 .7.7 0 0 1 1 .26 3.62 3.62 0 0 0 .77 1 .72.72 0 0 1 .44.9.73.73 0 0 1-.72.43ZM175.33 160.41a.7.7 0 0 1-.31-.07c-1.26-.6-3-3.47-3.32-4a.72.72 0 1 1 1.24-.72c.73 1.26 2.06 3.17 2.7 3.47a.71.71 0 0 1-.31 1.36ZM173.24 165.4a.67.67 0 0 1-.24 0c-1.22-.44-4.17-4.33-5.38-6a.71.71 0 0 1 .15-1 .72.72 0 0 1 1 .16c1.79 2.44 4.1 5.22 4.71 5.47a.73.73 0 0 1 .42.92.72.72 0 0 1-.66.45ZM172.32 167.57a.69.69 0 0 1-.47-.18 73.94 73.94 0 0 1-5.65-6.39.72.72 0 0 1 .11-1 .7.7 0 0 1 1 .11 77.09 77.09 0 0 0 5.49 6.2.72.72 0 0 1-.48 1.25ZM170.77 171.11h-.11c-1.85-.3-7-5.66-8.48-7.29a.72.72 0 0 1 0-1 .73.73 0 0 1 1 0c3 3.18 6.72 6.71 7.65 6.86a.71.71 0 0 1-.11 1.42ZM169.08 173.61a.68.68 0 0 1-.33-.09c-1.37-.71-6.74-6.42-7.8-7.55a.72.72 0 0 1 1.05-1c2.39 2.56 6.52 6.8 7.41 7.27a.71.71 0 0 1-.33 1.35ZM156.84 171.59h-.19a.7.7 0 0 1-.63-.79.72.72 0 0 1 .79-.63c.4 0 3.14-.27 5.56-.58a.7.7 0 0 1 .8.61.72.72 0 0 1-.61.81c-1.13.13-4.68.58-5.72.58ZM154.88 174h-.15a.72.72 0 0 1-.69-.74.71.71 0 0 1 .75-.69c1.24 0 7.26-.76 9.48-1.07a.72.72 0 0 1 .2 1.42c-.32.08-7.69 1.08-9.59 1.08ZM154.76 178.78a.7.7 0 0 1-.68-.5.71.71 0 0 1 .46-.9c2.06-.66 9.3-1.65 12.79-2.12.88-.12 1.47-.2 1.59-.23l.16.7.61.37c-.18.3-.18.3-2.17.58-3.17.43-10.6 1.44-12.54 2.06a.6.6 0 0 1-.22.04ZM155.94 181a.71.71 0 0 1-.22-1.39c2-.65 11.94-2.22 12.36-2.28a.71.71 0 0 1 .82.59.72.72 0 0 1-.6.82c-.1 0-10.24 1.62-12.14 2.23a.83.83 0 0 1-.22.03ZM156.73 183.21a.72.72 0 0 1-.06-1.43c2.25-.19 10.45-1.46 10.53-1.47a.72.72 0 0 1 .82.6.71.71 0 0 1-.6.81c-.34.06-8.33 1.3-10.63 1.49ZM158.26 185.93c-.65 0-.79-.14-.91-.25a.72.72 0 0 1 .81-1.16 70.58 70.58 0 0 0 9-1.68.71.71 0 0 1 .33 1.39c-5.79 1.35-8.18 1.7-9.23 1.7ZM158.72 188.78a.75.75 0 0 1-.44-.1.72.72 0 0 1 .54-1.31 69.13 69.13 0 0 0 7.71-2.23.72.72 0 0 1 .91.46.71.71 0 0 1-.46.9c-5.74 1.9-7.57 2.28-8.26 2.28ZM160.79 191.16a.72.72 0 0 1 0-1.43 35.62 35.62 0 0 0 5.69-2A.72.72 0 0 1 167 189c-1.16.51-5.15 2.16-6.21 2.16ZM162.46 193.86a.71.71 0 0 1-.65-.42.72.72 0 0 1 .36-.95l4.3-1.9a.71.71 0 0 1 .94.36.73.73 0 0 1-.36 1l-4.3 1.9a.72.72 0 0 1-.29.01ZM153.93 176.45a.72.72 0 0 1-.1-1.43l12.83-1.82a.72.72 0 0 1 .2 1.42L154 176.44ZM157.85 157.54a.69.69 0 0 1-.46-.18.7.7 0 0 1-.08-1 40.55 40.55 0 0 1 24.07-13.85.71.71 0 1 1 .16 1.42 39.88 39.88 0 0 0-23.15 13.36.72.72 0 0 1-.54.25ZM210.39 181a.71.71 0 0 1-.72-.71c0-20.76-12.13-30.13-12.25-30.23a.72.72 0 0 1-.15-1 .71.71 0 0 1 1-.14c.53.39 12.85 9.9 12.83 31.37a.71.71 0 0 1-.71.71ZM173.83 162.54a.69.69 0 0 1-.53-.24c-.73-.79-3.61-4-3.61-4l1.07-.95s2.87 3.21 3.59 4a.71.71 0 0 1 0 1 .7.7 0 0 1-.52.19ZM170.72 168.6a.69.69 0 0 1-.41-.13 72.68 72.68 0 0 1-5.56-5.53.71.71 0 0 1 0-1 .72.72 0 0 1 1 0 73.8 73.8 0 0 0 5.32 5.32.72.72 0 0 1 .19 1 .73.73 0 0 1-.54.34ZM176.47 158.53a.69.69 0 0 1-.28-.05c-.16-.06-.64-.25-3.27-3.35a.72.72 0 0 1 1.09-.93 30.67 30.67 0 0 0 2.76 3 .69.69 0 0 1 .38.91.72.72 0 0 1-.68.42ZM177.25 157a1 1 0 0 1-.25 0 7.39 7.39 0 0 1-2.26-2.48.72.72 0 1 1 1.18-.82 11.66 11.66 0 0 0 1.61 2 .69.69 0 0 1 .41.9.74.74 0 0 1-.69.4ZM158.65 169.17a.7.7 0 0 1-.7-.57.71.71 0 0 1 .55-.84l2.83-.58a.71.71 0 1 1 .29 1.4l-2.83.58ZM198.42 169.9a.56.56 0 0 1-.25-.05c-.61-.23-5.3-1.5-8.3-2.3a.72.72 0 0 1-.51-.88.71.71 0 0 1 .88-.5c.77.2 7.56 2 8.44 2.35a.71.71 0 0 1-.26 1.38ZM196.73 167.07a.71.71 0 0 1-.41-.13c-.33-.16-3.28-.92-5.92-1.56a.72.72 0 1 1 .34-1.39 43.46 43.46 0 0 1 6.4 1.78.71.71 0 0 1-.41 1.3Z"/><ellipse class="cls-18" cx="193.59" cy="161.28" rx=".6" ry=".54"/><ellipse class="cls-18" cx="179.36" cy="152.01" rx=".79" ry=".42"/><path class="cls-18" d="M164.37 195.18a.72.72 0 0 1-.24-1.39l1.86-.68a.72.72 0 0 1 .92.43.71.71 0 0 1-.43.92l-1.86.68a.73.73 0 0 1-.25.04Z"/><ellipse class="cls-18" cx="166.73" cy="196.23" rx=".9" ry=".47" transform="rotate(-35.22 166.733 196.234)"/><path class="cls-18" d="M182.42 192.91a.72.72 0 0 1-.3-1.37c3.81-1.72 14.08-6.61 15.77-8.48a.72.72 0 1 1 1.06 1c-2.2 2.43-14.81 8.18-16.24 8.83a.79.79 0 0 1-.29.02Z"/><path class="cls-18" d="M181.86 196.3a.71.71 0 0 1-.29-1.36c4.41-2 16.23-7.73 18-10.65a.72.72 0 1 1 1.23.73c-2.28 3.84-16.94 10.48-18.6 11.22a.8.8 0 0 1-.34.06Z"/><path class="cls-18" d="M181.86 198.78a.72.72 0 0 1-.64-.4.72.72 0 0 1 .33-1c8.37-4 17.36-9 17.95-10.25a.71.71 0 0 1 .94-.36.73.73 0 0 1 .36.95c-1.09 2.38-15.71 9.54-18.63 11a.67.67 0 0 1-.31.06Z"/><path class="cls-18" d="M182.41 200.5a.72.72 0 0 1-.26-1.38c6.77-2.74 16.62-7.34 17.34-9a.71.71 0 1 1 1.31.57c-1.21 2.75-15.3 8.58-18.12 9.72a.81.81 0 0 1-.27.09ZM184.73 201.66a.72.72 0 0 1-.26-1.39c6.63-2.58 13.88-5.73 14.55-6.53a.69.69 0 0 1 1-.25.73.73 0 0 1 .26 1c-.77 1.37-10.93 5.44-15.25 7.13a.85.85 0 0 1-.3.04ZM211.56 174a.72.72 0 0 1-.71-.6c-2.77-17.32-9.39-22.3-10-22.71a.7.7 0 0 1-.51-.66.74.74 0 0 1 .65-.74c1.1-.06 8.42 6.07 11.27 23.88a.72.72 0 0 1-.6.82Z"/><path class="cls-2" d="M182.41 142.34a29.88 29.88 0 1 1-29.87 29.88 29.88 29.88 0 0 1 29.87-29.88m0-3.61a33.49 33.49 0 1 0 33.49 33.49 33.52 33.52 0 0 0-33.49-33.49Z"/></g></g></svg>