<svg width="592" height="406" viewBox="0 0 592 406" fill="none" xmlns="http://www.w3.org/2000/svg"><mask id="icon_svg__b" style="mask-type:alpha" maskUnits="userSpaceOnUse" x="0" y="0" width="592" height="406"><path fill="url(#icon_svg__a)" d="M0 0h592v406H0z"/></mask><g mask="url(#icon_svg__b)" stroke="#E0E5EB"><path d="M0 57.5h592M0 115.5h592M0 173.5h592M0 231.5h592M0 289.5h592M0 347.5h592M150.5 406V0M92.5 406V0M34.5 406V0M208.5 406V0M266.5 406V0M324.5 406V0M382.5 406V0M440.5 406V0M498.5 406V0M556.5 406V0"/></g><circle cx="296" cy="203" r="121" fill="#fff" stroke="#0073E6" stroke-width="6"/><circle cx="296" cy="203" r="100" fill="#fff" stroke="#E0E5EB" stroke-width="3" stroke-linecap="round" stroke-dasharray="0.01 10"/><path d="M307.126 183.349h-22.411l-11.254 19.854 11.202 19.651h22.459l11.202-19.651-11.198-19.854Zm-2.99 34.117h-16.494l-8.212-14.316 8.219-14.467h16.494l8.22 14.467-8.227 14.316Z" fill="#141A1F"/><path d="m279.414 203.199 8.22 14.267h16.493l8.272-14.267-8.272-14.667h-16.493l-8.22 14.667Z" fill="#E83030"/><path d="M307.126 225.547h-22.411l-11.254 19.801 11.202 19.651h22.459l11.202-19.651-11.198-19.801Zm-2.99 34.268h-16.494l-8.212-14.316 8.219-14.467h16.494l8.22 14.467-8.227 14.316Z" fill="#141A1F"/><path d="m279.414 245.349 8.22 14.466h16.493l8.272-14.466-8.272-14.467h-16.493l-8.22 14.467Z" fill="#6B91C7"/><path d="M307.126 141h-22.411l-11.254 19.854 11.254 19.651h22.459l11.202-19.651L307.126 141Zm-2.99 34.118h-16.494l-8.212-14.316 8.219-14.614h16.494l8.22 14.466-8.227 14.464Z" fill="#141A1F"/><path d="m279.414 160.847 8.22 14.267h16.493l8.272-14.267-8.272-14.666h-16.493l-8.22 14.666Z" fill="#F9C31F"/><path d="M343.571 204.596h-22.232l-11.202 19.854 11.202 19.651h22.459L355 224.45l-11.429-19.854Zm-2.989 34.202h-16.494l-8.22-14.317 8.22-14.466h16.494l8.219 14.466-8.219 14.317Z" fill="#141A1F"/><path d="m315.832 224.527 8.338 14.316h16.448l8.419-14.316-8.419-14.667H324.17l-8.338 14.667Z" fill="#795AA5"/><path d="M343.571 162.251h-22.232l-11.202 19.651 11.202 19.651h22.459L355 181.902l-11.429-19.651Zm-2.989 34.167h-16.494l-8.22-14.316 8.22-14.467h16.494l8.219 14.467-8.219 14.316Z" fill="#141A1F"/><path d="m315.832 182.104 8.206 14.509h16.58l8.419-14.316-8.419-14.666h-16.58l-8.206 14.473Z" fill="#F17423"/><path d="M270.469 204.596h-22.267L237 224.45l11.202 19.651h22.459l11.203-19.651-11.395-19.854Zm-2.99 34.17h-16.294l-8.22-14.316 8.22-14.467h16.494l8.219 14.467-8.419 14.316Z" fill="#141A1F"/><path d="m242.965 224.45 8.219 14.316h16.295l8.419-14.316-8.419-14.667h-16.295l-8.219 14.667Z" fill="#97C639"/><path d="M270.469 162.247h-22.267L237 181.898l11.202 19.651h22.459l11.203-19.651-11.395-19.651Zm-2.99 34.17h-16.294l-8.22-14.316 8.22-14.467h16.494l8.219 14.467-8.419 14.316Z" fill="#141A1F"/><path d="m242.965 182.098 8.219 14.316h16.295l8.419-14.316-8.419-14.666h-16.295l-8.219 14.666Z" fill="#C9DB70"/><defs><radialGradient id="icon_svg__a" cx="0" cy="0" r="1" gradientUnits="userSpaceOnUse" gradientTransform="matrix(0 203 -296 0 296 203)"><stop offset=".655" stop-color="#F6F7F8"/><stop offset="1" stop-color="#F6F7F8" stop-opacity="0"/></radialGradient></defs></svg>