<svg width="128" height="128" fill="none" xmlns="http://www.w3.org/2000/svg"><path d="M0 79.98V46.4h8.672v12.996c6.653-7.556 17.04-10.09 21.403-10.413v-2.212l10.594 5.852-10.594 6.141v-2.627C12.362 59.415 8.425 73.398 8.672 79.982H0Z" fill="#69E3C2"/><path d="M30.124 80c0-9.454-5.004-17.194-7.506-19.882-2.314 1.116-4.753 2.907-5.656 4.362 3.907 3.936 5.604 11.987 5.964 15.52h7.198Z" fill="#69E3C2"/><path fill-rule="evenodd" clip-rule="evenodd" d="M32.411 60.092c6.56-2.46 19.677-5.113 19.677 3.948v9.414c.017.555.376 1.665 1.672 1.665v4.83h-3.444c-.506.056-1.823-.246-3.039-1.898-.715.265-1.221.529-1.686.77-1.225.638-2.167 1.128-5.912 1.128-5.166 0-8.847-1.332-8.847-6.495s3.833-8.028 15.382-7.662c0-2.098-.625-4.997-10.947-1.594a205.712 205.712 0 0 1-2.856-4.106Zm13.717 10.124c.202 1.717-.49 5.152-4.88 5.152-3.402 0-4.457-.833-4.457-2.446 0-2.55 3.35-2.706 9.337-2.706ZM83.773 60.092c6.56-2.46 19.677-5.113 19.677 3.948v9.414c.017.555.376 1.665 1.672 1.665v4.83h-3.444c-.507.056-1.823-.246-3.04-1.898-.715.265-1.22.529-1.685.77-1.225.638-2.167 1.128-5.912 1.128-5.166 0-8.847-1.332-8.847-6.495s3.833-8.028 15.381-7.662c0-2.098-.624-4.997-10.946-1.594a205.712 205.712 0 0 1-2.856-4.106Zm13.718 10.124c.202 1.717-.491 5.152-4.88 5.152-3.403 0-4.458-.833-4.458-2.446 0-2.55 3.35-2.706 9.338-2.706Z" fill="#69E3C2"/><path d="M53.712 58.064h3.813l1.365-5.355 4.498-.895v6.25h5.19v4.733h-5.19v10.446c0 1.575 1.303 1.964 1.954 1.961h3.115v4.536h-5.942c-4.052 0-5.015-4.331-4.99-6.497V62.797h-3.813v-4.733ZM70.96 79.683v-21.24h4.515c.067.996.888 1.465 1.357 1.168 2.304-1.494 5.018-1.845 6.086-1.833v5.543h-1.203c-4.343 0-5.293 2.897-5.225 4.345v12.017h-5.53ZM106.733 79.683v-21.24h4.514c.067.996.888 1.465 1.357 1.168 2.304-1.494 5.018-1.845 6.086-1.833 3.104-.228 9.31.806 9.31 6.765v15.14h-5.529V67.666c.077-1.448-.571-4.345-3.781-4.345h-1.203c-4.343 0-5.293 2.897-5.225 4.345v12.017h-5.529Z" fill="#69E3C2"/></svg>