<svg width="60mm" height="60mm" viewBox="0 0 60 60" xmlns="http://www.w3.org/2000/svg"><g transform="matrix(.85536 0 0 .85536 .045 8.622)"><path style="fill:none;fill-opacity:1;stroke:#5c68ff;stroke-width:14.2682;stroke-linecap:round;stroke-linejoin:round;stroke-miterlimit:4;stroke-dasharray:none;stroke-opacity:1" d="M151.244 24.541a28.165 39.078 0 0 0-21.295 13.506H22.961v126.629h147.228V92.504a28.165 39.078 0 0 0 9.22-28.885 28.165 39.078 0 0 0-28.165-39.078Z" transform="scale(.26458)"/><path style="fill:none;fill-rule:evenodd;stroke:#5c68ff;stroke-width:3.565;stroke-linecap:round;stroke-linejoin:round;stroke-miterlimit:4;stroke-dasharray:none;stroke-opacity:1" d="m14.139 19.526 8.684 7.5-8.684 7.5"/><path style="fill:none;fill-rule:evenodd;stroke:#5c68ff;stroke-width:3.52219;stroke-linecap:round;stroke-linejoin:round;stroke-miterlimit:4;stroke-dasharray:none;stroke-opacity:1" d="M24.898 35.61h12.223"/><ellipse style="fill:#5c68ff;fill-opacity:1;stroke:#5c68ff;stroke-width:1.84235;stroke-linecap:round;stroke-linejoin:round;stroke-miterlimit:4;stroke-dasharray:none;stroke-opacity:1" cx="37.301" cy="19.028" rx="2.231" ry="2.633"/><ellipse style="fill:none;fill-opacity:1;stroke:#5c68ff;stroke-width:3.77512;stroke-linecap:round;stroke-linejoin:round;stroke-miterlimit:4;stroke-dasharray:none;stroke-opacity:1" cx="56.41" cy="16.833" rx="7.452" ry="10.339"/><ellipse style="fill:none;fill-opacity:1;stroke:#5c68ff;stroke-width:3.77512;stroke-linecap:round;stroke-linejoin:round;stroke-miterlimit:4;stroke-dasharray:none;stroke-opacity:1" cx="40.17" cy="16.833" rx="7.452" ry="10.339"/><ellipse style="fill:#5c68ff;fill-opacity:1;stroke:#5c68ff;stroke-width:1.84235;stroke-linecap:round;stroke-linejoin:round;stroke-miterlimit:4;stroke-dasharray:none;stroke-opacity:1" cx="53.049" cy="18.687" rx="2.231" ry="2.633"/></g></svg>