<svg width="240" height="46" viewBox="0 0 240 46" fill="none" xmlns="http://www.w3.org/2000/svg">
<g clip-path="url(#clip0_530_17508)">
<path d="M63.325 20.7693C59.411 20.0243 57.5195 19.6194 57.5195 17.6905C57.5195 15.8636 59.1082 14.9485 61.2651 14.9485C63.7316 14.9485 65.2489 16.3382 65.4547 18.3335H70.4539C70.3519 13.7986 66.841 10.8882 61.2719 10.8882C55.7028 10.8882 52.4573 13.8683 52.4573 18.0664C52.4573 22.8718 55.9359 24.1271 59.9519 24.9045C63.9017 25.6835 65.8289 26.0867 65.8289 28.0837C65.8289 29.9446 64.1058 30.9583 61.7788 30.9583C58.8769 30.9583 57.0534 29.3662 56.885 27.0664L51.8892 27.0001C51.9555 31.8055 55.7045 34.988 61.7159 34.988C67.2526 34.988 70.8979 31.9449 70.9336 27.5087C70.9336 22.7374 67.353 21.5161 63.3369 20.7744L63.3233 20.7659V20.771L63.325 20.7693Z" fill="#ffffff"/>
<path d="M101.754 17.1767C99.0565 17.1767 97.2908 19.1788 96.4998 21.5585H95.2479L96.3536 19.0717C96.5883 18.5426 96.7108 17.9711 96.7108 17.3928H91.2642V34.7804H96.0389V25.8774C96.0389 22.8649 97.4609 21.1027 99.9308 21.1027C102.401 21.1027 103.45 22.6608 103.45 25.6035V34.777H108.225V25.0269C108.225 19.104 105.347 17.1733 101.759 17.1733H101.758L101.754 17.1767Z" fill="#ffffff"/>
<path d="M140.544 17.1767C137.846 17.1767 136.081 19.1788 135.29 21.5585H134.038L135.143 19.0717C135.378 18.5426 135.501 17.9711 135.501 17.3928H130.052V34.7804H134.827V25.8774C134.827 22.8649 136.249 21.1027 138.719 21.1027C141.189 21.1027 142.238 22.6608 142.238 25.6035V34.777H147.013V25.0269C147.013 19.104 144.135 17.1733 140.546 17.1733H140.544V17.1767Z" fill="#ffffff"/>
<path d="M127.606 17.3911H122.816V34.7788H127.608V17.3911H127.606Z" fill="#ffffff"/>
<path d="M172.565 10.4221L167.804 12.8239V34.7805H172.565V10.4221Z" fill="#ffffff"/>
<path d="M127.608 11.2878H122.816V16.0796H127.608V11.2878Z" fill="#ffffff"/>
<path d="M116.616 17.391V11.23L111.853 13.6318V17.391H108.985V21.4122H111.853V32.2272C111.853 33.6356 112.996 34.7787 114.405 34.7787H120.6V30.7541H116.616V21.4122H120.6V17.391H116.616Z" fill="#ffffff"/>
<path d="M148.5 26.1121C148.5 20.6961 152.053 17.1768 157.435 17.1768C162.817 17.1768 166.168 20.4257 166.202 25.5372C166.202 26.0441 166.168 26.6207 166.066 27.1617H153.475V27.3981C153.577 29.8697 155.167 31.358 157.571 31.358C159.466 31.358 160.82 30.5126 161.26 28.8865H165.965C165.425 32.2715 162.412 34.9795 157.741 34.9795C151.953 34.9795 148.5 31.4924 148.5 26.1104V26.1121ZM161.397 24.0471C161.092 21.9141 159.602 20.7302 157.471 20.7302C155.339 20.7302 153.849 21.9821 153.579 24.0471H161.398H161.397Z" fill="#ffffff"/>
<path d="M211.911 17.1767C209.213 17.1767 207.448 19.1788 206.657 21.5585H205.405L206.511 19.0717C206.745 18.5426 206.868 17.9711 206.868 17.3928H201.419V34.7804H206.194V25.8774C206.194 22.8649 207.616 21.1027 210.086 21.1027C212.556 21.1027 213.605 22.6608 213.605 25.6035V34.777H218.38V25.0269C218.38 19.104 215.502 17.1733 211.913 17.1733H211.911V17.1767Z" fill="#ffffff"/>
<path d="M219.867 26.1121C219.867 20.6961 223.42 17.1768 228.802 17.1768C234.184 17.1768 237.535 20.4257 237.569 25.5372C237.569 26.0441 237.535 26.6207 237.433 27.1617H224.842V27.3981C224.944 29.8697 226.535 31.358 228.938 31.358C230.833 31.358 232.187 30.5126 232.628 28.8865H237.333C236.792 32.2715 233.779 34.9795 229.108 34.9795C223.32 34.9795 219.867 31.4924 219.867 26.1104V26.1121ZM232.764 24.0471C232.459 21.9141 230.969 20.7302 228.838 20.7302C226.706 20.7302 225.216 21.9821 224.946 24.0471H232.765H232.764Z" fill="#ffffff"/>
<path d="M72.1245 26.1121C72.1245 20.6961 75.6779 17.1768 81.0599 17.1768C86.4419 17.1768 89.7929 20.4257 89.8269 25.5372C89.8269 26.0441 89.7929 26.6207 89.6908 27.1617H77.1V27.3981C77.202 29.8697 78.7925 31.358 81.196 31.358C83.0909 31.358 84.4449 30.5126 84.8855 28.8865H89.5904C89.0495 32.2715 86.037 34.9795 81.3661 34.9795C75.5776 34.9795 72.1245 31.4924 72.1245 26.1104V26.1121ZM85.0215 24.0471C84.7171 21.9141 83.227 20.7302 81.0956 20.7302C78.9643 20.7302 77.4742 21.9821 77.2037 24.0471H85.0232H85.0215Z" fill="#ffffff"/>
<path d="M187.73 34.983C180.761 34.983 175.714 29.8408 175.714 22.9381C175.714 16.0355 180.761 10.8933 187.73 10.8933C194.699 10.8933 199.821 16.0355 199.821 22.9381C199.821 29.8408 194.699 34.983 187.73 34.983ZM187.73 30.6862C191.688 30.6862 194.61 27.405 194.61 22.9381C194.61 18.4713 191.688 15.1901 187.73 15.1901C183.772 15.1901 180.89 18.4713 180.89 22.9381C180.89 27.405 183.738 30.6862 187.73 30.6862Z" fill="#ffffff"/>
<path d="M237.71 16.2361H238.335C238.672 16.2361 238.898 16.4351 238.898 16.7464C238.898 16.9437 238.796 17.1002 238.636 17.1767L238.939 17.767H238.575L238.316 17.2533H238.04V17.767H237.712V16.2344L237.71 16.2361ZM238.039 16.5082V16.9794H238.308C238.462 16.9794 238.561 16.8876 238.561 16.7447C238.561 16.6018 238.462 16.5082 238.308 16.5082H238.039Z" fill="#ffffff"/>
<path d="M238.265 18.5698C237.416 18.5698 236.727 17.8792 236.727 17.0321C236.727 16.185 237.418 15.4944 238.265 15.4944C239.112 15.4944 239.802 16.185 239.802 17.0321C239.802 17.8792 239.112 18.5698 238.265 18.5698ZM238.265 15.8227C237.598 15.8227 237.055 16.3653 237.055 17.0321C237.055 17.6989 237.598 18.2415 238.265 18.2415C238.932 18.2415 239.474 17.6989 239.474 17.0321C239.474 16.3653 238.932 15.8227 238.265 15.8227Z" fill="#ffffff"/>
<path d="M18.4663 9.10208L36.6313 18.1838V9.08337L18.4663 0V9.10208Z" fill="url(#paint0_linear_530_17508)"/>
<path d="M18.4663 36.308L36.6313 27.2246V36.3267L18.4663 45.4101V36.308Z" fill="url(#paint1_linear_530_17508)"/>
<path d="M18.4663 9.10208L0.30127 18.1838V9.08337L18.4663 0V9.10208Z" fill="url(#paint2_linear_530_17508)"/>
<path d="M18.4663 36.308L0.30127 27.2246V36.3267L18.4663 45.4101V36.308Z" fill="url(#paint3_linear_530_17508)"/>
<path d="M4.83936 20.4411L22.9908 29.5176L32.0878 24.9658L13.9448 15.8943L4.83936 20.4411Z" fill="url(#paint4_linear_530_17508)"/>
</g>
<defs>
<linearGradient id="paint0_linear_530_17508" x1="36.5038" y1="13.5757" x2="18.4578" y2="4.54168" gradientUnits="userSpaceOnUse">
<stop stop-color="#4500B6"/>
<stop offset="1" stop-color="#6100FF"/>
</linearGradient>
<linearGradient id="paint1_linear_530_17508" x1="36.5038" y1="31.8343" x2="18.4578" y2="40.8684" gradientUnits="userSpaceOnUse">
<stop stop-color="#4500B6"/>
<stop offset="1" stop-color="#6100FF"/>
</linearGradient>
<linearGradient id="paint2_linear_530_17508" x1="0.428845" y1="13.5757" x2="18.4748" y2="4.54168" gradientUnits="userSpaceOnUse">
<stop stop-color="#6100FF"/>
<stop offset="1" stop-color="#4500B6"/>
</linearGradient>
<linearGradient id="paint3_linear_530_17508" x1="0.428845" y1="31.8343" x2="18.4748" y2="40.8684" gradientUnits="userSpaceOnUse">
<stop stop-color="#6100FF"/>
<stop offset="1" stop-color="#4500B6"/>
</linearGradient>
<linearGradient id="paint4_linear_530_17508" x1="28.155" y1="27.5547" x2="8.6258" y2="17.7773" gradientUnits="userSpaceOnUse">
<stop stop-color="#6100FF"/>
<stop offset="1" stop-color="#4500B6"/>
</linearGradient>
<clipPath id="clip0_530_17508">
<rect width="240" height="45.41" fill="white"/>
</clipPath>
</defs>
</svg>
