<svg width="140" height="28" viewBox="0 0 140 28" fill="none" xmlns="http://www.w3.org/2000/svg">
<path d="M2.46358 22.836C1.35519 22.1054 0.558527 21.154 0.090923 20.0156C-0.0303077 19.7268 -0.0303077 19.421 0.090923 19.1491C0.212154 18.8603 0.437297 18.6564 0.731714 18.5375C1.02613 18.4185 1.33787 18.4185 1.61497 18.5375C1.90938 18.6564 2.11721 18.8773 2.23844 19.1661C2.53286 19.8967 3.0351 20.5083 3.74516 20.9671C4.45523 21.4258 5.23457 21.6637 6.06587 21.6637C6.89716 21.6637 7.86701 21.3579 8.54244 20.7632C9.23518 20.1516 9.58156 19.421 9.58156 18.5884C9.58156 17.7559 9.28714 17.0083 8.69831 16.5666C8.21338 16.2098 7.22622 15.836 5.75413 15.4452C4.07422 14.9865 2.86191 14.5108 2.13453 13.9841C0.870263 13.1006 0.246791 11.8263 0.246791 10.1613C0.246791 8.49621 0.818307 7.42582 1.94402 6.38941C3.08705 5.33601 4.45523 4.8263 6.06587 4.8263C7.6765 4.8263 8.61171 5.20009 9.63351 5.96465C10.6726 6.72922 11.3654 7.73165 11.7464 9.00592C11.833 9.31174 11.7983 9.60058 11.6598 9.87242C11.5039 10.1443 11.2788 10.3312 10.9671 10.4161C10.6726 10.5011 10.3782 10.4671 10.0838 10.3312C9.8067 10.1782 9.61619 9.95737 9.5296 9.65155C9.30446 8.87 8.87149 8.24135 8.24802 7.78262C7.62455 7.32388 6.89716 7.103 6.06587 7.103C5.23457 7.103 4.28204 7.40883 3.5893 8.00349C2.89655 8.61514 2.55017 9.34572 2.55017 10.1782C2.55017 11.0108 2.84459 11.7244 3.43343 12.1491C3.90103 12.4889 4.87088 12.8627 6.34296 13.2705C8.04019 13.7292 9.26982 14.2219 9.99721 14.7486C11.2615 15.6491 11.8849 16.9404 11.8849 18.6224C11.8849 20.3045 11.3134 21.3579 10.1877 22.3943C9.04468 23.4477 7.6765 23.9574 6.06587 23.9574C4.45523 23.9574 3.5893 23.6006 2.4809 22.87L2.46358 22.836Z" fill="#ffffff"/>
<path d="M20.27 9.63546C20.599 9.63546 20.8934 9.75439 21.1186 9.99225C21.3437 10.2131 21.465 10.502 21.465 10.8248C21.465 11.1476 21.3437 11.4364 21.1186 11.6573C20.8934 11.8952 20.599 12.0141 20.27 12.0141H18.3822V22.752C18.3822 23.0748 18.261 23.3636 18.0359 23.5845C17.8107 23.8054 17.5163 23.9243 17.1872 23.9243C16.8582 23.9243 16.5638 23.8054 16.3386 23.5845C16.0962 23.3636 15.9749 23.0748 15.9749 22.752V12.0141H14.1045C13.7755 12.0141 13.4811 11.8952 13.2386 11.6573C13.0134 11.4364 12.8922 11.1476 12.8922 10.8248C12.8922 10.502 13.0134 10.2131 13.2386 9.99225C13.4811 9.75439 13.7755 9.63546 14.1045 9.63546H15.9749V5.98254C15.9749 5.65973 16.0962 5.37089 16.3386 5.15002C16.5638 4.91216 16.8582 4.79322 17.1872 4.79322C17.5163 4.79322 17.8107 4.91216 18.0359 5.15002C18.261 5.37089 18.3822 5.65973 18.3822 5.98254V9.63546H20.27Z" fill="#ffffff"/>
<path d="M34.0353 9.63504C34.3644 9.63504 34.6588 9.75398 34.884 9.99184C35.1091 10.2127 35.2303 10.5015 35.2303 10.8244V22.7515C35.2303 23.0744 35.1091 23.3632 34.884 23.5841C34.6588 23.8049 34.3644 23.9239 34.0353 23.9239C33.7063 23.9239 33.4119 23.8049 33.1867 23.5841C32.9443 23.3632 32.823 23.0744 32.823 22.7515V22.1229C31.4722 23.3292 29.8962 23.9239 28.0777 23.9239C26.2593 23.9239 24.4062 23.2273 23.0207 21.8341C21.6179 20.4409 20.9078 18.7588 20.9078 16.788C20.9078 14.8171 21.6179 13.1181 23.0207 11.7248C24.4235 10.3147 26.1034 9.61805 28.0777 9.61805C30.052 9.61805 31.4722 10.2127 32.823 11.419V10.8074C32.823 10.4846 32.9443 10.1957 33.1867 9.97485C33.4119 9.73699 33.7063 9.61805 34.0353 9.61805V9.63504ZM28.0777 21.5622C29.3939 21.5622 30.5023 21.1035 31.4375 20.169C32.3554 19.2346 32.823 18.1132 32.823 16.8049C32.823 15.4967 32.3554 14.3583 31.4375 13.4239C30.5023 12.4894 29.3939 12.0307 28.0777 12.0307C26.7615 12.0307 25.6531 12.4894 24.7179 13.4239C23.7827 14.3583 23.3151 15.4967 23.3151 16.8049C23.3151 18.1132 23.7827 19.2346 24.7179 20.169C25.6531 21.1035 26.7615 21.5622 28.0777 21.5622Z" fill="#ffffff"/>
<path d="M44.4769 12.0131C43.1607 12.0131 42.0523 12.4719 41.1171 13.4063C40.1818 14.3408 39.7142 15.4791 39.7142 16.7874C39.7142 18.0956 40.1818 19.217 41.1171 20.1515C42.0523 21.0859 43.1607 21.5447 44.4769 21.5447C45.7931 21.5447 47.3518 20.8821 48.3216 19.5738C48.5121 19.3189 48.7719 19.149 49.1183 19.0981C49.1876 19.0811 49.2741 19.0641 49.3434 19.0641C49.5859 19.0641 49.811 19.132 50.0188 19.285C50.2959 19.4719 50.4518 19.7267 50.5038 20.0495C50.5211 20.1175 50.5384 20.2024 50.5384 20.2704C50.5384 20.5083 50.4691 20.7291 50.3133 20.933C48.8758 22.9039 46.9361 23.8893 44.5115 23.8893C42.0869 23.8893 40.84 23.1927 39.4545 21.7995C38.0517 20.4063 37.3416 18.7243 37.3416 16.7534C37.3416 14.7825 38.0517 13.0835 39.4545 11.6903C40.8573 10.2801 42.5372 9.58351 44.5115 9.58351C46.4858 9.58351 48.8758 10.5689 50.3133 12.5398C50.4691 12.7437 50.5384 12.9816 50.5384 13.2194C50.5384 13.4573 50.5384 13.3554 50.5038 13.4403C50.4518 13.7631 50.2959 14.018 50.0188 14.2219C49.811 14.3748 49.5859 14.4427 49.3434 14.4427C49.101 14.4427 49.2049 14.4427 49.1183 14.4257C48.7892 14.3748 48.5121 14.2219 48.3216 13.95C47.3691 12.6418 46.0875 11.9961 44.4769 11.9961V12.0131Z" fill="#ffffff"/>
<path d="M62.613 21.8685C62.8555 22.0893 62.9767 22.3782 62.9941 22.684C63.0114 23.0068 62.9075 23.2956 62.665 23.5505C62.4399 23.8054 62.1281 23.9243 61.7817 23.9243C61.4354 23.9243 61.1929 23.8223 60.9678 23.6015L54.9409 18.1986V22.718C54.9409 23.0408 54.8196 23.3296 54.5945 23.5675C54.352 23.7884 54.0749 23.9073 53.7459 23.9073C53.4168 23.9073 53.1224 23.7884 52.8799 23.5675C52.6548 23.3296 52.5336 23.0408 52.5336 22.718V5.98254C52.5336 5.65973 52.6548 5.37089 52.8799 5.13303C53.1224 4.91216 53.4168 4.79322 53.7459 4.79322C54.0749 4.79322 54.352 4.91216 54.5945 5.13303C54.8196 5.37089 54.9409 5.65973 54.9409 5.98254V14.8855L60.6214 9.92429C60.8639 9.70342 61.1583 9.60148 61.5047 9.61847C61.8337 9.63546 62.1108 9.77138 62.3359 10.0092C62.5611 10.2471 62.665 10.5359 62.6477 10.8757C62.6304 11.1986 62.4918 11.4704 62.2494 11.6913L56.6901 16.5505L62.613 21.8685Z" fill="#ffffff"/>
<path d="M80.8648 13.8141C81.1938 13.8141 81.4883 13.933 81.7307 14.1539C81.9559 14.3917 82.0771 14.6806 82.0771 15.0034V18.1806C82.0771 20.0495 81.0207 21.5446 78.9251 22.649C77.2972 23.4985 75.444 23.9233 73.4004 23.9233C71.3568 23.9233 68.4993 22.9888 66.6289 21.1199C64.7584 19.2509 63.8059 17.0082 63.8059 14.3577C63.8059 11.7073 64.7411 9.46454 66.6289 7.59561C68.4993 5.72668 70.7507 4.77522 73.4004 4.77522C76.0502 4.77522 76.8815 5.25095 78.4055 6.18541C79.9296 7.11988 81.1073 8.39415 81.9386 10.0082C82.0251 10.1781 82.0598 10.365 82.0598 10.5349C82.0598 10.7048 82.0425 10.7898 81.9905 10.9087C81.8866 11.2145 81.6788 11.4354 81.3844 11.5883C81.2112 11.6733 81.038 11.7073 80.8475 11.7073C80.657 11.7073 80.5877 11.6903 80.4665 11.6393C80.1547 11.5374 79.9123 11.3335 79.7737 11.0446C79.1502 9.83833 78.267 8.88687 77.124 8.17328C75.9809 7.47667 74.7513 7.13687 73.3831 7.13687C71.4088 7.13687 69.7116 7.83347 68.3261 9.24366C66.9233 10.6539 66.2132 12.3529 66.2132 14.3408C66.2132 16.3286 66.9233 18.0107 68.3261 19.4208C69.7289 20.831 71.4088 21.5276 73.3831 21.5276C75.3575 21.5276 76.2407 21.2388 77.4877 20.6611C78.9251 19.9985 79.6352 19.166 79.6352 18.1466V16.1417H73.8507C73.5217 16.1417 73.2273 16.0228 73.0021 15.8019C72.777 15.5641 72.6557 15.2922 72.6557 14.9694C72.6557 14.6466 72.777 14.3577 73.0021 14.1199C73.2273 13.899 73.5217 13.7801 73.8507 13.7801H80.8475L80.8648 13.8141Z" fill="#ffffff"/>
<path d="M85.4403 21.8336C84.7649 21.1709 84.2453 20.4234 83.8816 19.5739C83.5006 18.6904 83.2928 17.7559 83.2928 16.8044C83.2928 14.8336 84.0028 13.1345 85.4403 11.7413C86.1157 11.0787 86.8951 10.569 87.7783 10.2122C88.6789 9.83842 89.6314 9.63453 90.6359 9.63453C92.6449 9.63453 94.3767 10.3311 95.8142 11.7413C96.4896 12.4039 97.0092 13.1685 97.3729 14.018C97.7539 14.9015 97.9617 15.836 97.9617 16.8044C97.9617 17.7729 97.8405 17.4161 97.6153 17.637C97.3728 17.8748 97.0784 17.9938 96.7494 17.9938H85.8733C86.1504 19.0302 86.7219 19.8797 87.6051 20.5423C88.4884 21.2219 89.5102 21.5617 90.6359 21.5617C92.4197 21.5617 93.8052 21.018 94.7751 19.9476C94.9829 19.7098 95.26 19.5739 95.6063 19.5569C95.9354 19.5569 96.2298 19.6418 96.4896 19.8457C96.7321 20.0666 96.8706 20.3384 96.8879 20.6612C96.9053 20.984 96.8013 21.2729 96.5762 21.5107C95.1214 23.1078 93.1471 23.9234 90.6359 23.9234C88.1247 23.9234 86.8777 23.2268 85.4403 21.8336ZM95.3985 15.6151C95.1214 14.5617 94.5499 13.7122 93.684 13.0326C92.7834 12.353 91.7789 12.0132 90.6532 12.0132C89.5275 12.0132 88.5057 12.353 87.6051 13.0326C86.7392 13.7122 86.1677 14.5787 85.8906 15.6151H95.4158H95.3985Z" fill="#ffffff"/>
<path d="M106.6 9.60151C108.436 9.60151 110.012 10.2981 111.328 11.7083C112.644 13.1015 113.285 14.7836 113.285 16.7714V22.769C113.285 23.0918 113.164 23.3637 112.921 23.6015C112.696 23.8224 112.402 23.9413 112.073 23.9413C111.744 23.9413 111.449 23.8224 111.224 23.6015C110.999 23.3637 110.878 23.0918 110.878 22.769V16.7714C110.878 15.4462 110.462 14.3248 109.631 13.3903C108.782 12.4559 107.778 11.9971 106.6 11.9971C105.422 11.9971 104.4 12.4559 103.569 13.3903C102.738 14.3248 102.322 15.4632 102.322 16.7714V22.735C102.322 23.0578 102.201 23.3467 101.976 23.5675C101.733 23.7884 101.456 23.9073 101.127 23.9073C100.798 23.9073 100.504 23.7884 100.261 23.5675C100.036 23.3467 99.9149 23.0578 99.9149 22.735V10.7908C99.9149 10.468 100.036 10.1792 100.261 9.95831C100.504 9.72045 100.798 9.60151 101.127 9.60151C101.456 9.60151 101.733 9.72045 101.976 9.95831C102.201 10.1792 102.322 10.468 102.322 10.7908V11.2666C103.569 10.1622 104.989 9.60151 106.617 9.60151H106.6Z" fill="#ffffff"/>
<path fill-rule="evenodd" clip-rule="evenodd" d="M121.822 6.59223C119.502 8.86893 118.48 11.9782 118.757 14.9684C118.982 17.3981 120.056 19.6578 121.822 21.3908L124.351 23.8714C124.853 24.3641 125.667 24.3641 126.169 23.8714L132.803 17.3641C132.906 17.2621 132.993 17.1602 133.097 17.0583C134.638 15.2403 131.885 12.8956 130.187 14.5607L125.269 19.3859L124.576 18.7063C121.961 16.1408 121.944 11.8762 124.576 9.29369L130.742 3.24515C131.504 2.49757 131.504 1.29126 130.742 0.56068C129.98 -0.186893 128.75 -0.186893 128.005 0.56068L121.84 6.60922L121.822 6.59223ZM134.171 18.6893L127.988 24.7549C127.226 25.5024 127.226 26.7087 127.988 27.4393C128.75 28.1869 129.98 28.1869 130.724 27.4393L136.907 21.3738C139.228 19.0971 140.232 16.0049 139.955 12.9976C139.73 10.585 138.674 8.32524 136.89 6.57524L134.361 4.09466C133.859 3.60194 133.045 3.60194 132.543 4.09466L125.91 10.6019C125.806 10.7039 125.719 10.8058 125.615 10.9078C124.074 12.7257 126.828 15.0704 128.525 13.4053L133.443 8.5801L134.136 9.25971C136.751 11.8252 136.768 16.0898 134.136 18.6723L134.171 18.6893Z" fill="url(#paint0_linear_3240_562)"/>
<defs>
<linearGradient id="paint0_linear_3240_562" x1="129.356" y1="28" x2="129.356" y2="0" gradientUnits="userSpaceOnUse">
<stop stop-color="#A134F0"/>
<stop offset="1" stop-color="#F994EB"/>
</linearGradient>
</defs>
</svg>
